# xmcd
#
# Track frame offsets: 
#        150
#        21481
#        40562
#        57391
#        75522
#        93420
#        106207
#        123694
#        137060
#        154055
#        172189
#        189287
#        207314
#        221769
#        237411
#        253586
#        272784
#        288654
#        305079
#        322920
#        333962
#
# Disc length: 4772 seconds
#
# Revision: 3
# Processed by: cddbd v1.5.2PL0 Copyright (c) Steve Scherf et al.
# Submitted via: ExactAudioCopy v0.99pb5
#
DISCID=3912a215
DTITLE=Various Artist - Mega Hits 2014 - Die Erste - CD 1
DYEAR=2014
DGENRE=Pop
TTITLE0=Klingande - Jubel
TTITLE1=Avicii - Hey brother
TTITLE2=Katy Perry - Roar
TTITLE3=Afrojack feat. Spree Wilson - The spark
TTITLE4=DVBBS and Borgeous - Tsunami
TTITLE5=Flo Rida - How I feel
TTITLE6=Sean Paul - Turn it up
TTITLE7=Jason Derulo feat. 2 Chainz - Talk dirty
TTITLE8=Drake feat. Majid Jordan - Hold on, we're going home
TTITLE9=Bruno Mars - Gorilla
TTITLE10=Adel Tawil - Lieder
TTITLE11=Bastille - Things we lost in the fire
TTITLE12=Classified feat. Olly Murs - Inner ninja
TTITLE13=Conor Maynard - R u crazy
TTITLE14=John Newman - Love me again
TTITLE15=Naughty Boy feat. Emeli Sandé and Professor Green - Lifted
TTITLE16=Fettes Brot - Echo
TTITLE17=Ivy Quainoo - Atomic
TTITLE18=Sido feat. Mark Forster - Einer dieser Steine
TTITLE19=Cro feat. Dajuan - Höhenangst
TTITLE20=Max Herre - A-N-N-A (immer wenn es regnet) (MTV Unplugged)
EXTD=
EXTT0=
EXTT1=
EXTT2=
EXTT3=
EXTT4=
EXTT5=
EXTT6=
EXTT7=
EXTT8=
EXTT9=
EXTT10=
EXTT11=
EXTT12=
EXTT13=
EXTT14=
EXTT15=
EXTT16=
EXTT17=
EXTT18=
EXTT19=
EXTT20=
PLAYORDER=
